PathFileType	4	(X/Y/Z)	Walk1_0-155.trc
DataRate	CameraRate	NumFrames	NumMarkers	Units	OrigDataRate	OrigDataStartFrame	OrigNumFrames
30	30	7	22	m	30	19	155
Frame#	Time	Hip			RHip			RKnee			RAnkle			RBigToe			RSmallToe			RHeel			LHip			LKnee			LAnkle			LBigToe			LSmallToe			LHeel			Neck			Head			Nose			RShoulder			RElbow			RWrist			LShoulder			LElbow			LWrist		
		X1	Y1	Z1	X2	Y2	Z2	X3	Y3	Z3	X4	Y4	Z4	X5	Y5	Z5	X6	Y6	Z6	X7	Y7	Z7	X8	Y8	Z8	X9	Y9	Z9	X10	Y10	Z10	X11	Y11	Z11	X12	Y12	Z12	X13	Y13	Z13	X14	Y14	Z14	X15	Y15	Z15	X16	Y16	Z16	X17	Y17	Z17	X18	Y18	Z18	X19	Y19	Z19	X20	Y20	Z20	X21	Y21	Z21	X22	Y22	Z22
20	0.6666666666666666	-2.496302307989269	0.8433348590553527	0.32062576498153794	-2.458705761218001	0.8336949321506215	0.41385315824794305	-2.3213710723160803	0.5317025961696088	0.44782563439355544	-2.471752372054262	0.1373608099922335	0.4785881563884337	-2.31268675295439	0.013995058672458868	0.5208105742414928	-2.3451461541641643	0.029143863594220953	0.5732459513212559	-2.5346998642579788	0.0637438934876297	0.46118521240879773	-2.5208813208251883	0.8113451537503313	0.22705139409747951	-2.4971680078433995	0.4638129126692699	0.23297715129797442	-2.571287097512938	0.08113776869299957	0.26836925141051476	-2.3802682059263187	-0.005458448960504106	0.2666435493146574	-2.4288659256558125	-0.010908384669114564	0.20718064842067088	-2.625397756557275	-0.002555308318592548	0.28132075528927314	-2.48727378573817	1.5258151398920776	0.28014353924598734	-2.4318774749343683	1.7817762576568992	0.2836048297534447	-2.3439769863102775	1.644261622134291	0.2823690921994061	-2.5257228925960833	1.4104953376608833	0.4654615417424464	-2.4990705159912365	1.0950254895452152	0.5466363585324112	-2.4107426923555053	0.8564822538699017	0.5640418234081896	-2.54999484434811	1.4161507789032541	0.06337271372071974	-2.5090057945891484	1.0936284768644875	0.06402565382440314	-2.459456428466972	0.8430508792399799	0.0759380231110091
21	0.7	-2.4854070445654504	0.8460721363362647	0.318396620757145	-2.4452059377461204	0.8389818193069343	0.4107932367887195	-2.3013766270060136	0.5403725854670919	0.4429298876534406	-2.4372013088571047	0.13963004637044962	0.4754161403320213	-2.272553845509683	0.0213080357963872	0.5123460127125125	-2.305728742555963	0.03517185822785572	0.5624669059285272	-2.4988579704976805	0.06676733300705101	0.4567969907203483	-2.5140380177306074	0.8145203548788449	0.22461984846204427	-2.492582062104053	0.4649966607282523	0.23100665590924946	-2.5719822862066852	0.08034977895882014	0.26824347759109646	-2.3794998716282376	-0.007190048826122703	0.26544546823195936	-2.4287313847654106	-0.012224459831387641	0.20826537519573626	-2.6275862234179956	-0.004584215788117226	0.2825842985389304	-2.4766762112084963	1.5269518477947317	0.2779948779971573	-2.4197059921536965	1.7828360955999945	0.2843685083811629	-2.333004392728183	1.6440724021454123	0.28397264519098725	-2.5171068584382295	1.4119782349781556	0.4643018850126093	-2.4948337334453674	1.0960025542796856	0.5450625878961661	-2.4091897681818706	0.8551907048412809	0.5638092970364347	-2.539541122649459	1.4167504105215967	0.05839875255388578	-2.498270433538581	1.0946678127513956	0.06135248715569027	-2.449671183837243	0.8439767417224936	0.07271342841062153
22	0.7333333333333333	-2.4735427569667405	0.8483588300824453	0.3167944507486872	-2.4307891241742774	0.842703360133484	0.4087428675215639	-2.285025032067361	0.5453712987394856	0.438677144805002	-2.3979416221355576	0.1380560709641399	0.47239848345645935	-2.2237656017259733	0.029224867988636133	0.5032298135855395	-2.257594411252548	0.03964753767825387	0.5510964683760116	-2.454808473297478	0.06693942659629637	0.4545671405709624	-2.505526064247858	0.8167155266830508	0.2235518262650079	-2.488439535581149	0.4646000946459836	0.23003145036123906	-2.5730778459158166	0.07858144191597241	0.268991933425847	-2.3783848740624007	-0.009391809748696188	0.26480570164825756	-2.4278476391021173	-0.013720867471318236	0.20936470935823678	-2.6291364867780653	-0.006713296623880327	0.28348333585824437	-2.465189614880373	1.5277613452498764	0.2764663459471137	-2.4069664814344627	1.7838548526978637	0.2848374827390146	-2.321136257328153	1.644883804696599	0.28805474799412173	-2.5069653602516175	1.4128248299128745	0.4634813617812191	-2.489656415074827	1.0967708503732732	0.5443863565354616	-2.408524752432948	0.8534292180280325	0.56398565526365	-2.5282333367626477	1.4173219852873769	0.05485110439550819	-2.4861374948160946	1.0955704584699164	0.05986350322987505	-2.4373990056874493	0.8452098300682415	0.07117698168815159
23	0.7666666666666667	-2.46107420074539	0.8499011490289881	0.31578429979622147	-2.4158924043883356	0.8443595601814289	0.40801595665715057	-2.271982812932697	0.5464447238118872	0.43472170393158943	-2.3540608872078828	0.13402150747534472	0.46987973222931007	-2.1685146562358506	0.038570065328744206	0.4947850507941851	-2.2023621924910444	0.04367620965688005	0.5407995810244635	-2.404295352734168	0.06452929686932393	0.454007207019861	-2.4951530175485415	0.8174639888942743	0.22376365954365193	-2.4851661068644506	0.4621014402626996	0.2300047376528594	-2.5746014208826584	0.07578516539910933	0.27082489848520097	-2.3772450423661304	-0.01201501805443661	0.26512558954755683	-2.42630311731796	-0.01548952229153312	0.21088125041935268	-2.629666381228349	-0.008597113143799318	0.2839759437268173	-2.452718146640258	1.5280374918316881	0.27559511498387035	-2.3938298682302186	1.7843964888788515	0.28526489687922985	-2.308145652153048	1.646150661230528	0.29314520000005395	-2.4954131262347334	1.4128440809760554	0.46285815711633305	-2.4832885208603894	1.0971758489172792	0.5444002456315107	-2.408357014893043	0.8514851446310848	0.5646619206215814	-2.5157940927937714	1.4177826877645259	0.053368294112688036	-2.4725643828122	1.0960724263807222	0.05948220996541463	-2.4225849743767984	0.8464451799204171	0.0714410380337803
24	0.8	-2.4483591201034933	0.8503962318180864	0.3152490422648706	-2.4010858095593983	0.843841217470452	0.40858491498680877	-2.261237065030293	0.5441405542268982	0.4307301823949104	-2.30688648600193	0.12917290481747964	0.4675274644384849	-2.110333633399187	0.049760334818835225	0.48761346745692086	-2.143107041161499	0.04897181980253922	0.5323521188194238	-2.3498428811425907	0.05956994170591469	0.4538498015384448	-2.483121265426057	0.8166656374893669	0.2249648984829933	-2.483247800726839	0.45733478651003356	0.23059525539374828	-2.576146986437748	0.072407248562815	0.2734416239335879	-2.3764871518284223	-0.014994715811823336	0.26675541883198023	-2.424516026621827	-0.017728713802456886	0.21344176185273298	-2.629136275254154	-0.010114937289529943	0.2843020884621334	-2.4391181556227233	1.5277663627368607	0.27545413202966285	-2.3802197641239125	1.7843398745802097	0.28597756710646616	-2.29389493764906	1.647130679181463	0.29762868163394296	-2.482660857576191	1.4121610891645966	0.4625775593833028	-2.4755413761955207	1.0972251670699145	0.5448222684249052	-2.40825784896027	0.8496461119506935	0.5659083724884169	-2.5019226925886344	1.4181148002765678	0.054153435148468536	-2.4575660391197984	1.0960183729458128	0.06002100697401174	-2.4053231839007116	0.8473732633665217	0.07338152480683699
25	0.8333333333333334	-2.4356940651905283	0.8495517071333905	0.3150848397298386	-2.3869549168812183	0.8414876342492508	0.4100288388821938	-2.251342326528818	0.539476225704614	0.4265742960709	-2.2585777175192177	0.12495931572378734	0.4649107927719151	-2.0530012685985675	0.06219929743202168	0.48136776123090524	-2.083467390629126	0.056562410997629216	0.5254600353208599	-2.294467907360039	0.05215964377876232	0.4526503596104038	-2.47002426924713	0.8146442962198667	0.22669838437254655	-2.482929847045476	0.45054806059244273	0.2311382860827962	-2.577053853325386	0.0690721311579557	0.2761632188404807	-2.376502175428487	-0.01828597316416702	0.2699491551123958	-2.423259646400817	-0.020652903999169053	0.21772174105789815	-2.6277394207203804	-0.011389731864917917	0.2847968199463889	-2.4242712654333882	1.5270870692922291	0.2761158382883971	-2.36590057872378	1.7837822543512105	0.2872269297812771	-2.278377735201087	1.6471761673807799	0.3005265221577585	-2.468903282779553	1.4111089091723683	0.46281835801233817	-2.466377127979441	1.0970185659311247	0.5453774381618686	-2.407862411369748	0.847998200017749	0.5676966716653845	-2.486488314657519	1.4183503191487203	0.056925056062566065	-2.441245912516718	1.0953767436461614	0.06126174541393686	-2.385944641583771	0.8476965578489464	0.07660208729858123
26	0.8666666666666667	-2.4231852016633284	0.8471994955829573	0.31525442084014677	-2.3737892826579428	0.8379332261694942	0.41169673005053836	-2.240765033669081	0.5336003044170178	0.42242820084032284	-2.2117316753047596	0.12214118537235832	0.4618707962139913	-1.9994729974495735	0.07450556704854965	0.475360329790402	-2.0268994866181553	0.06602710954204992	0.5194878882891081	-2.241322916634991	0.0431837796060551	0.4497467584024292	-2.4565215721927167	0.8119930632604472	0.22842238764060208	-2.483832222192245	0.44242915189329124	0.2310044808044083	-2.576755426896781	0.06620854389132813	0.2783086312499788	-2.3775708399503546	-0.02173771221648003	0.2747511598373652	-2.4233994387800797	-0.024182054297523493	0.22414648768956827	-2.625787970114584	-0.012653253505805226	0.28566724584291264	-2.408125467064583	1.526144987597874	0.27756996421987506	-2.3506056224895238	1.7828081528925708	0.28891222476406003	-2.2616910583031555	1.6459108403992109	0.3016441465548565	-2.4541999483496784	1.4100157962261244	0.4635548299012037	-2.4558979281822166	1.0966522891857209	0.5458993086346825	-2.406888876016534	0.84645707229411	0.5699344982815893	-2.469565225973863	1.4184722720031055	0.06102509645855606	-2.4237203004530428	1.0941641817380299	0.0630575673973892	-2.3649859313891093	0.8471289091996265	0.08053188110686935
